<?xml version="1.0" encoding="UTF-8"?>
<svg version="1.1" xmlns="http://www.w3.org/2000/svg" width="164" height="164">
<path d="M0 0 C2.48652919 1.93227994 4.84557775 3.94206279 7.18359375 6.05078125 C7.86808594 6.64246094 8.55257812 7.23414062 9.2578125 7.84375 C21.50113317 19.12492366 30.05577429 36.16256128 31.4050293 52.77758789 C32.32451411 75.86273442 28.0170098 95.43690074 12.18359375 113.05078125 C11.66539062 113.66179687 11.1471875 114.2728125 10.61328125 114.90234375 C-0.2400162 126.84642486 -17.55295282 134.97369715 -33.54321289 136.2722168 C-56.6011009 137.1906159 -76.24117555 132.9023466 -93.81640625 117.05078125 C-94.50089844 116.45910156 -95.18539062 115.86742187 -95.890625 115.2578125 C-108.13394567 103.97663884 -116.68858679 86.93900122 -118.0378418 70.32397461 C-118.95732661 47.23882808 -114.6498223 27.66466176 -98.81640625 10.05078125 C-98.29820313 9.43976562 -97.78 8.82875 -97.24609375 8.19921875 C-72.86027408 -18.63743707 -28.69679074 -19.86088569 0 0 Z " fill="#E93F3F" transform="translate(124.81640625,19.94921875)"/>
<path d="M0 0 C2.48652919 1.93227994 4.84557775 3.94206279 7.18359375 6.05078125 C7.86808594 6.64246094 8.55257812 7.23414062 9.2578125 7.84375 C21.50113317 19.12492366 30.05577429 36.16256128 31.4050293 52.77758789 C32.32451411 75.86273442 28.0170098 95.43690074 12.18359375 113.05078125 C11.66539062 113.66179687 11.1471875 114.2728125 10.61328125 114.90234375 C-0.2400162 126.84642486 -17.55295282 134.97369715 -33.54321289 136.2722168 C-56.6011009 137.1906159 -76.24117555 132.9023466 -93.81640625 117.05078125 C-94.50089844 116.45910156 -95.18539062 115.86742187 -95.890625 115.2578125 C-108.13394567 103.97663884 -116.68858679 86.93900122 -118.0378418 70.32397461 C-118.95732661 47.23882808 -114.6498223 27.66466176 -98.81640625 10.05078125 C-98.29820313 9.43976562 -97.78 8.82875 -97.24609375 8.19921875 C-72.86027408 -18.63743707 -28.69679074 -19.86088569 0 0 Z M-89.81640625 10.05078125 C-90.82767578 10.92283203 -90.82767578 10.92283203 -91.859375 11.8125 C-104.78988144 23.74258041 -112.08484075 41.04536177 -113.140625 58.42578125 C-113.82064999 76.99246356 -108.15118326 95.70052574 -95.44140625 109.55078125 C-93.61165113 111.4435449 -91.73463133 113.24332692 -89.81640625 115.05078125 C-89.02492188 115.79972656 -88.2334375 116.54867187 -87.41796875 117.3203125 C-73.25650118 129.6233815 -55.41150982 134.15948419 -37 133.21923828 C-17.02955949 131.67858489 0.18945832 122.00820505 13.18359375 107.05078125 C18.52855243 100.00148669 22.23154087 92.36627085 25.18359375 84.05078125 C25.66505859 82.70306641 25.66505859 82.70306641 26.15625 81.328125 C31.73298633 62.88598765 28.13794797 44.36422085 19.29296875 27.7578125 C16.71101919 23.10585165 13.75512018 18.99533377 10.18359375 15.05078125 C9.60351562 14.37917969 9.0234375 13.70757812 8.42578125 13.015625 C-3.93178979 -0.40190506 -21.49649162 -6.91729586 -39.33984375 -8.203125 C-58.10344978 -8.81284385 -75.74964826 -2.48638752 -89.81640625 10.05078125 Z " fill="#EDE7E7" transform="translate(124.81640625,19.94921875)"/>
<path d="M0 0 C0.99 0.33 1.98 0.66 3 1 C3.77440406 22.18855542 0.47229758 42.31735492 -14.375 58.5 C-27.84757125 72.45877849 -44.58686203 81.64999883 -64.3046875 82.16796875 C-65.82806985 82.18247401 -67.35154913 82.18878588 -68.875 82.1875 C-70.06101807 82.1884668 -70.06101807 82.1884668 -71.27099609 82.18945312 C-76.77216532 82.13957646 -81.70130362 81.56998411 -87 80 C-78.47752593 75.72070688 -78.47752593 75.72070688 -74 77 C-61.27278553 77.40603875 -47.95056957 75.78532225 -37 69 C-36.38640625 68.72542969 -35.7728125 68.45085937 -35.140625 68.16796875 C-21.4588233 60.70289811 -10.02131262 46.82064288 -5.25 32.125 C-3.28377912 24.81856976 -1.81142004 17.14921697 -2 9.5625 C-2 5.92324918 -1.34328599 3.35821498 0 0 Z " fill="#B93C3C" transform="translate(150,71)"/>
<path d="M0 0 C0.33 0 0.66 0 1 0 C1.78445378 24.28487862 -1.15276391 44.2582956 -18 63 C-18.51820313 63.61101562 -19.03640625 64.22203125 -19.5703125 64.8515625 C-30.42360995 76.79564361 -47.73654657 84.9229159 -63.72680664 86.22143555 C-66.69633858 86.33971245 -69.65312894 86.37974096 -72.625 86.375 C-73.67953369 86.37338867 -74.73406738 86.37177734 -75.82055664 86.37011719 C-87.83509069 86.18260552 -98.20514213 83.3027372 -109 78 C-108.67 76.68 -108.34 75.36 -108 74 C-104.31127768 75.16485968 -100.75309525 76.50923631 -97.1875 78 C-80.23945475 84.70912279 -61.67254131 83.30788513 -44.8125 76.75 C-26.60976125 68.60348877 -14.41942097 55.56722901 -7.0625 37.078125 C-5.61304347 32.87896416 -4.54483322 28.63410707 -3.578125 24.30078125 C-3 22 -3 22 -2 21 C-1.77329092 19.44246949 -1.60564908 17.87622641 -1.46484375 16.30859375 C-1.37783203 15.36435547 -1.29082031 14.42011719 -1.20117188 13.44726562 C-1.11416016 12.45404297 -1.02714844 11.46082031 -0.9375 10.4375 C-0.84662109 9.44041016 -0.75574219 8.44332031 -0.66210938 7.41601562 C-0.43741186 4.94434298 -0.21689649 2.47236744 0 0 Z " fill="#AE9D9D" transform="translate(155,70)"/>
<path d="M0 0 C-0.33 0.99 -0.66 1.98 -1 3 C-0.01 3.33 0.98 3.66 2 4 C-0.8568761 5.42843805 -3.23198661 4.64094144 -6.30859375 4.265625 C-13.89706259 3.51669048 -21.03943333 3.78587008 -28.46484375 5.48828125 C-32.93020693 6.38961034 -37.46196421 6.67215711 -42 7 C-42 7.66 -42 8.32 -42 9 C-43.67174129 10.13898857 -45.39080064 11.20857479 -47.125 12.25 C-61.74075787 21.75716951 -72.6754063 34.34357868 -78 51 C-78.33 51.99 -78.66 52.98 -79 54 C-79.66 54 -80.32 54 -81 54 C-81.04898438 55.05058594 -81.09796875 56.10117188 -81.1484375 57.18359375 C-81.53376426 64.65875491 -82.05427553 71.73596197 -84 79 C-84.33 79 -84.66 79 -85 79 C-85.89742949 57.46169228 -81.75434327 38.55443743 -67 22 C-66.41863281 21.32582031 -65.83726563 20.65164062 -65.23828125 19.95703125 C-48.52661217 1.84396434 -23.68358503 -3.86670776 0 0 Z " fill="#E97070" transform="translate(97,13)"/>
<path d="M0 0 C5.28 0 10.56 0 16 0 C16 1.32 16 2.64 16 4 C16.66 4 17.32 4 18 4 C18 6.64 18 9.28 18 12 C17.01 12 16.02 12 15 12 C15 13.32 15 14.64 15 16 C15.66 16 16.32 16 17 16 C17.0772418 20.55726628 16.99296412 24.53557076 16 29 C13.52076199 29.02685095 11.0418116 29.04676547 8.5625 29.0625 C7.85544922 29.07087891 7.14839844 29.07925781 6.41992188 29.08789062 C4.61306441 29.09653588 2.80612397 29.05220011 1 29 C0 28 0 28 -0.11352539 25.31616211 C-0.10828857 24.14835205 -0.10305176 22.98054199 -0.09765625 21.77734375 C-0.09443359 20.51728516 -0.09121094 19.25722656 -0.08789062 17.95898438 C-0.07953403 16.61848891 -0.07106907 15.27799412 -0.0625 13.9375 C-0.0574866 12.59310058 -0.05292342 11.2486994 -0.04882812 9.90429688 C-0.03699497 6.60284567 -0.01905886 3.3014174 0 0 Z " fill="#FEEFEF" transform="translate(53,67)"/>
<path d="M0 0 C2.97 0 5.94 0 9 0 C9 1.32 9 2.64 9 4 C9.66 4 10.32 4 11 4 C11 5.32 11 6.64 11 8 C11.66 8 12.32 8 13 8 C13.05418326 10.08304538 13.09287551 12.16649768 13.125 14.25 C13.14820312 15.41015625 13.17140625 16.5703125 13.1953125 17.765625 C13.0103949 20.82786046 12.60823023 22.44202751 11 25 C10.34 25 9.68 25 9 25 C8.67 26.32 8.34 27.64 8 29 C5.36 29 2.72 29 0 29 C0 27.35 0 25.7 0 24 C-0.99 24 -1.98 24 -3 24 C-4.02345486 20.62097444 -4.1338035 17.52139987 -4.125 14 C-4.12886719 12.453125 -4.12886719 12.453125 -4.1328125 10.875 C-4.01863671 8.40342991 -3.71350656 6.3557042 -3 4 C-2.01 4 -1.02 4 0 4 C0 2.68 0 1.36 0 0 Z " fill="#FEF1F1" transform="translate(79,67)"/>
<path d="M0 0 C4.95 0 9.9 0 15 0 C15 1.32 15 2.64 15 4 C15.99 4 16.98 4 18 4 C18 5.32 18 6.64 18 8 C17.34 8 16.68 8 16 8 C16 9.32 16 10.64 16 12 C15.01 12 14.02 12 13 12 C13 13.32 13 14.64 13 16 C13.66 16 14.32 16 15 16 C15.33872513 17.41538717 15.67074624 18.83237963 16 20.25 C16.185625 21.03890625 16.37125 21.8278125 16.5625 22.640625 C17 25 17 25 17 29 C15.68 29 14.36 29 13 29 C9.57142857 20.57142857 9.57142857 20.57142857 10 16 C8.35 16 6.7 16 5 16 C5 20.29 5 24.58 5 29 C3.35 28.67 1.7 28.34 0 28 C0 18.76 0 9.52 0 0 Z " fill="#FEEDED" transform="translate(94,67)"/>
<path d="M0 0 C1.98 0 3.96 0 6 0 C6 1.32 6 2.64 6 4 C6.66 4 7.32 4 8 4 C12.59225513 20.70842825 12.59225513 20.70842825 12 29 C10.35 29 8.7 29 7 29 C7 26.36 7 23.72 7 21 C4.69 21 2.38 21 0 21 C-0.33 23.64 -0.66 26.28 -1 29 C-2.32 29 -3.64 29 -5 29 C-4.85888117 26.24968413 -4.71228835 23.49984582 -4.5625 20.75 C-4.52318359 19.97269531 -4.48386719 19.19539063 -4.44335938 18.39453125 C-4.40146484 17.64042969 -4.35957031 16.88632813 -4.31640625 16.109375 C-4.27974854 15.41811523 -4.24309082 14.72685547 -4.20532227 14.01464844 C-3.99324476 11.93371671 -3.55491323 10.01427578 -3 8 C-2.34 8 -1.68 8 -1 8 C-0.67 5.36 -0.34 2.72 0 0 Z " fill="#FDEEEE" transform="translate(38,67)"/>
<path d="M0 0 C1.0621875 0.00064453 2.124375 0.00128906 3.21875 0.00195312 C7.88437942 0.02832917 12.18409701 0.15331163 16.75 1.1875 C16.75 1.5175 16.75 1.8475 16.75 2.1875 C15.9751123 2.16655273 15.20022461 2.14560547 14.40185547 2.12402344 C-5.87286792 1.21749815 -5.87286792 1.21749815 -25.25 6.1875 C-26.19891113 6.5901709 -26.19891113 6.5901709 -27.16699219 7.00097656 C-46.18631584 15.20663794 -59.67049848 28.36976997 -67.8125 47.5625 C-72.82011903 60.19040885 -72.94085418 72.74905072 -73.25 86.1875 C-73.58 86.1875 -73.91 86.1875 -74.25 86.1875 C-75.03445378 61.90262138 -72.09723609 41.9292044 -55.25 23.1875 C-54.73179688 22.57648437 -54.21359375 21.96546875 -53.6796875 21.3359375 C-40.02370459 6.307494 -19.75620478 -0.23113786 0 0 Z " fill="#373636" transform="translate(81.25,6.8125)"/>
<path d="M0 0 C5.28 0 10.56 0 16 0 C16 1.32 16 2.64 16 4 C14.02 4 12.04 4 10 4 C10 12.25 10 20.5 10 29 C8.35 29 6.7 29 5 29 C5 20.75 5 12.5 5 4 C3.35 4 1.7 4 0 4 C0 2.68 0 1.36 0 0 Z " fill="#FDEFEF" transform="translate(117,67)"/>
<path d="M0 0 C1 3 1 3 0.14453125 5.19140625 C-0.29503906 5.97386719 -0.73460937 6.75632812 -1.1875 7.5625 C-1.61417969 8.34753906 -2.04085937 9.13257812 -2.48046875 9.94140625 C-4 12 -4 12 -8 14 C-5.36 9.38 -2.72 4.76 0 0 Z M-9 14 C-8.505 14.99 -8.505 14.99 -8 16 C-17.44931458 29.63747233 -31.11946758 38.22809708 -47.38818359 41.62207031 C-56.1468913 42.88945483 -65.18364317 42.361828 -74 42 C-74.33 41.34 -74.66 40.68 -75 40 C-71.83389453 38.98232324 -70.16968298 39.20757925 -67 40 C-54.26571606 40.39182412 -40.9593581 38.7907679 -30 32 C-29.39027344 31.72929687 -28.78054687 31.45859375 -28.15234375 31.1796875 C-24.9446638 29.42157617 -22.26939745 27.05184952 -19.5 24.6875 C-18.93152344 24.21376953 -18.36304688 23.74003906 -17.77734375 23.25195312 C-14.43659117 20.41890192 -11.62805649 17.5362819 -9 14 Z " fill="#D14040" transform="translate(143,108)"/>
<path d="M0 0 C0.99 0.33 1.98 0.66 3 1 C3.05896868 4.14575207 3.09391603 7.2913586 3.125 10.4375 C3.14175781 11.31599609 3.15851563 12.19449219 3.17578125 13.09960938 C3.21967784 19.04759738 2.48881322 24.2381756 1 30 C0.34 29.67 -0.32 29.34 -1 29 C-1.268125 30.134375 -1.53625 31.26875 -1.8125 32.4375 C-2.204375 33.613125 -2.59625 34.78875 -3 36 C-4.485 36.495 -4.485 36.495 -6 37 C-5.56239354 33.42621393 -5.02425452 30.08185901 -4 26.625 C-2.46211372 21.05016224 -1.91925058 15.58655369 -2.0625 9.8125 C-2.0012728 6.0776408 -1.37779575 3.44448937 0 0 Z " fill="#C54545" transform="translate(150,71)"/>
<path d="M0 0 C4.72042713 4.30951946 6.63902911 9.16053199 9 15 C9.32484375 15.75023437 9.6496875 16.50046875 9.984375 17.2734375 C13.82087416 27.58855316 12.77717902 40.29392961 11 51 C10.67 51 10.34 51 10 51 C9.96261719 49.76765625 9.92523438 48.5353125 9.88671875 47.265625 C9.36343397 32.98804539 7.40195688 21.73516765 0.328125 9.2265625 C-1.17319667 5.57923397 -1.02040435 3.75282045 0 0 Z " fill="#DFD3D3" transform="translate(143,40)"/>
<path d="M0 0 C1.65 0 3.3 0 5 0 C6.09016409 3.53005515 6.13344314 6.81878963 6.125 10.5 C6.12757812 11.6240625 6.13015625 12.748125 6.1328125 13.90625 C6.02266367 16.4720699 5.75270662 18.56266427 5 21 C3.35 21 1.7 21 0 21 C-2.25998595 17.40537669 -2.20868087 14.43404325 -2.125 10.25 C-2.09792969 8.49429688 -2.09792969 8.49429688 -2.0703125 6.703125 C-2.04710938 5.81109375 -2.02390625 4.9190625 -2 4 C-1.34 4 -0.68 4 0 4 C0 2.68 0 1.36 0 0 Z " fill="#FA3D3D" transform="translate(81,71)"/>
<path d="M0 0 C4.50122081 1.42143815 8.81076366 3.141634 13.14453125 5 C20.87201548 7.70620515 28.41737885 8.3662536 36.5625 8.625 C37.57119141 8.66367188 38.57988281 8.70234375 39.61914062 8.7421875 C42.0792564 8.83546203 44.53938366 8.92125516 47 9 C47 9.33 47 9.66 47 10 C31.26979978 12.09389904 14.50268533 13.84023032 0.55859375 4.3359375 C0.04425781 3.89507812 -0.47007813 3.45421875 -1 3 C-0.67 2.01 -0.34 1.02 0 0 Z " fill="#D3C7C7" transform="translate(47,144)"/>
<path d="M0 0 C15.74487472 -0.18451025 15.74487472 -0.18451025 23 1 C22.67 1.99 22.34 2.98 22 4 C23.485 4.495 23.485 4.495 25 5 C22.1431239 6.42843805 19.76801339 5.64094144 16.69140625 5.265625 C8.20656004 4.42822363 0.26742397 4.95143477 -8 7 C-8.33 6.34 -8.66 5.68 -9 5 C-8.01 5 -7.02 5 -6 5 C-6 4.34 -6 3.68 -6 3 C-5.195625 2.87625 -4.39125 2.7525 -3.5625 2.625 C-2.716875 2.41875 -1.87125 2.2125 -1 2 C-0.67 1.34 -0.34 0.68 0 0 Z " fill="#E76767" transform="translate(74,12)"/>
<path d="M0 0 C-2.01864397 0.65264429 -4.04003727 1.29678746 -6.0625 1.9375 C-7.18785156 2.29714844 -8.31320313 2.65679687 -9.47265625 3.02734375 C-15.94122547 4.81103559 -22.21144954 5.19312444 -28.875 5.1875 C-30.06101807 5.1884668 -30.06101807 5.1884668 -31.27099609 5.18945312 C-36.77216532 5.13957646 -41.70130362 4.56998411 -47 3 C-43.67189772 0.99712607 -41.23243799 0.78427678 -37.37890625 0.875 C-35.73656006 0.90001587 -35.73656006 0.90001587 -34.06103516 0.92553711 C-32.90651855 0.95010986 -31.75200195 0.97468262 -30.5625 1 C-22.2703557 1.10540379 -14.45356911 1.07297503 -6.3203125 -0.66015625 C-3.88063595 -1.01748261 -2.32125022 -0.77195065 0 0 Z " fill="#BD3E3E" transform="translate(110,148)"/>
<path d="M0 0 C-2.79200774 4.76342539 -6.39866413 5.41643344 -11.51586914 6.76464844 C-19.5979089 8.67398831 -27.75659383 8.33993428 -36 8 C-36 7.67 -36 7.34 -36 7 C-35.24074219 6.95101562 -34.48148437 6.90203125 -33.69921875 6.8515625 C-32.70535156 6.77679688 -31.71148437 6.70203125 -30.6875 6.625 C-29.70136719 6.55539063 -28.71523437 6.48578125 -27.69921875 6.4140625 C-24.78471567 6.16134528 -24.78471567 6.16134528 -22 4 C-19.74337567 3.43934799 -17.46933191 2.94713213 -15.1875 2.5 C-11.56912052 1.78640748 -8.16133317 1.05611589 -4.67578125 -0.15625 C-2 -1 -2 -1 0 0 Z " fill="#B4A3A3" transform="translate(112,148)"/>
<path d="M0 0 C0.99 0 1.98 0 3 0 C3.17043789 9.24152118 2.89476185 17.46148364 -1 26 C-1.99 26.33 -2.98 26.66 -4 27 C-3.57111136 23.49740941 -3.07736501 20.24176565 -2 16.875 C-0.32534143 11.43860837 -0.32246508 5.64313889 0 0 Z " fill="#CE3F3F" transform="translate(148,81)"/>
<path d="M0 0 C2.64 0 5.28 0 8 0 C8 2.64 8 5.28 8 8 C5.36 8 2.72 8 0 8 C0 5.36 0 2.72 0 0 Z " fill="#F63939" transform="translate(58,83)"/>
<path d="M0 0 C2.64 0 5.28 0 8 0 C8 2.64 8 5.28 8 8 C5.36 8 2.72 8 0 8 C0 5.36 0 2.72 0 0 Z " fill="#F53030" transform="translate(58,71)"/>
<path d="M0 0 C2 1 2 1 2.61669922 2.79370117 C3.00168513 5.00969971 3.12934165 7.05290941 3.1328125 9.30078125 C3.13410156 10.11353516 3.13539063 10.92628906 3.13671875 11.76367188 C3.13285156 12.60478516 3.12898437 13.44589844 3.125 14.3125 C3.12886719 15.14201172 3.13273438 15.97152344 3.13671875 16.82617188 C3.12909367 21.65665906 2.80986449 26.23722548 2 31 C1.67 31 1.34 31 1 31 C0.93941406 29.69804688 0.87882813 28.39609375 0.81640625 27.0546875 C0.73195438 25.32811601 0.64730874 23.601554 0.5625 21.875 C0.52318359 21.0190625 0.48386719 20.163125 0.44335938 19.28125 C0.21788175 14.77169753 -0.2483008 10.45650237 -1 6 C-0.5625 2.625 -0.5625 2.625 0 0 Z " fill="#CBBFBF" transform="translate(152,60)"/>
<path d="M0 0 C0.84884766 0.33064453 0.84884766 0.33064453 1.71484375 0.66796875 C0.99941406 1.09464844 0.28398438 1.52132813 -0.453125 1.9609375 C-9.28068259 7.49957325 -16.15785112 14.12682009 -23.28515625 21.66796875 C-23.28515625 17.53217678 -21.09454166 15.78859036 -18.41015625 12.91796875 C-17.91636475 12.3866333 -17.42257324 11.85529785 -16.91381836 11.30786133 C-5.3797448 -0.78167232 -5.3797448 -0.78167232 0 0 Z " fill="#E55555" transform="translate(53.28515625,21.33203125)"/>
<path d="M0 0 C0.66 0.33 1.32 0.66 2 1 C1.401875 1.721875 0.80375 2.44375 0.1875 3.1875 C-1.79012605 5.73016207 -3.40473257 8.20828201 -5 11 C-5.35449219 11.61746094 -5.70898438 12.23492187 -6.07421875 12.87109375 C-7.05333015 14.57852662 -8.0270924 16.28902456 -9 18 C-9.33 18 -9.66 18 -10 18 C-10.50814683 12.20712612 -10.11905701 9.05103811 -6.4375 4.48046875 C-4.48131928 2.46581524 -2.57634936 1.11409702 0 0 Z " fill="#E86C6C" transform="translate(31,37)"/>
<path d="M0 0 C1.03125 0.04833984 2.0625 0.09667969 3.125 0.14648438 C4.74535156 0.2305957 4.74535156 0.2305957 6.3984375 0.31640625 C7.48640625 0.36861328 8.574375 0.42082031 9.6953125 0.47460938 C12.3882956 0.604534 15.08093086 0.73950787 17.7734375 0.87890625 C17.7734375 1.20890625 17.7734375 1.53890625 17.7734375 1.87890625 C-1.56698803 4.45337434 -1.56698803 4.45337434 -11.2265625 2.87890625 C-7.04193912 0.78659456 -4.74567747 -0.23467636 0 0 Z " fill="#C2B7B7" transform="translate(76.2265625,152.12109375)"/>
<path d="M0 0 C1.98 0 3.96 0 6 0 C6 2.64 6 5.28 6 8 C4.02 8 2.04 8 0 8 C0 5.36 0 2.72 0 0 Z " fill="#F63030" transform="translate(99,71)"/>
<path d="M0 0 C0.33 0 0.66 0 1 0 C1.11618764 3.91641711 1.18724654 7.83239101 1.25 11.75 C1.28351563 12.86117187 1.31703125 13.97234375 1.3515625 15.1171875 C1.36445313 16.18710938 1.37734375 17.25703125 1.390625 18.359375 C1.41157227 19.34389648 1.43251953 20.32841797 1.45410156 21.34277344 C0.88098889 24.69640696 -0.43284083 25.85922021 -3 28 C-3.04254356 26.00045254 -3.04080783 23.99958364 -3 22 C-2.67 21.67 -2.34 21.34 -2 21 C-1.77329092 19.44246949 -1.60564908 17.87622641 -1.46484375 16.30859375 C-1.37783203 15.36435547 -1.29082031 14.42011719 -1.20117188 13.44726562 C-1.11416016 12.45404297 -1.02714844 11.46082031 -0.9375 10.4375 C-0.84662109 9.44041016 -0.75574219 8.44332031 -0.66210938 7.41601562 C-0.43741186 4.94434298 -0.21689649 2.47236744 0 0 Z " fill="#BFB3B3" transform="translate(155,70)"/>
<path d="M0 0 C0.66 0.33 1.32 0.66 2 1 C1.835 2.216875 1.67 3.43375 1.5 4.6875 C0.80838825 10.7853726 0.91475557 16.87187237 1 23 C0.34 23.33 -0.32 23.66 -1 24 C-1.02893932 20.37501666 -1.04677792 16.75006287 -1.0625 13.125 C-1.07087891 12.09246094 -1.07925781 11.05992188 -1.08789062 9.99609375 C-1.09111328 9.00996094 -1.09433594 8.02382812 -1.09765625 7.0078125 C-1.10289307 6.09660645 -1.10812988 5.18540039 -1.11352539 4.24658203 C-1 2 -1 2 0 0 Z " fill="#E55353" transform="translate(16,67)"/>
<path d="M0 0 C3.10398978 -0.08710289 6.20766548 -0.14042309 9.3125 -0.1875 C10.19357422 -0.21263672 11.07464844 -0.23777344 11.98242188 -0.26367188 C13.25375977 -0.27817383 13.25375977 -0.27817383 14.55078125 -0.29296875 C15.72120972 -0.31653442 15.72120972 -0.31653442 16.9152832 -0.34057617 C19.49903853 0.08152696 20.36292167 1.01489942 22 3 C19.12584784 3.06684075 16.47571602 3.10148608 13.65625 2.5 C10.77127544 1.95694597 8.12022572 1.90216596 5.1875 1.9375 C4.21167969 1.94652344 3.23585938 1.95554687 2.23046875 1.96484375 C1.49441406 1.97644531 0.75835937 1.98804687 0 2 C0 1.34 0 0.68 0 0 Z " fill="#E55353" transform="translate(77,15)"/>
<path d="M0 0 C0.74507812 0.10441406 1.49015625 0.20882812 2.2578125 0.31640625 C4.09014511 0.57481213 5.92032234 0.84842082 7.75 1.125 C3.37180989 4.04379341 -0.76788475 3.57070491 -5.7734375 2.671875 C-7.94351044 2.19267908 -10.09888745 1.68269585 -12.25 1.125 C-8.33049902 -1.65990859 -4.46387984 -0.68614407 0 0 Z " fill="#C34E4E" transform="translate(75.25,149.875)"/>
<path d="M0 0 C2.83738101 2.83738101 3.43471017 6.13599356 4 10 C3.625 13.5 3.625 13.5 3 16 C0.0958773 11.64381594 -1.19768998 7.8121581 -0.625 2.5625 C-0.41875 1.716875 -0.2125 0.87125 0 0 Z " fill="#D6CACA" transform="translate(149,50)"/>
<path d="M0 0 C0.66 0 1.32 0 2 0 C2 1.32 2 2.64 2 4 C2.66 4 3.32 4 4 4 C4 5.32 4 6.64 4 8 C2.35 8 0.7 8 -1 8 C-0.67 5.36 -0.34 2.72 0 0 Z " fill="#ED4848" transform="translate(40,75)"/>
<path d="M0 0 C4.455 0.99 4.455 0.99 9 2 C7 4 7 4 5.0546875 4.1953125 C3.03645833 4.13020833 1.01822917 4.06510417 -1 4 C-0.67 2.68 -0.34 1.36 0 0 Z " fill="#CAC0C0" transform="translate(62,150)"/>
<path d="M0 0 C0.33 0.99 0.66 1.98 1 3 C0.071875 3.763125 -0.85625 4.52625 -1.8125 5.3125 C-3.98276101 7.11848552 -6.05568065 8.9476629 -8 11 C-8 8 -8 8 -6.25 5.95703125 C-5.5075 5.24933594 -4.765 4.54164062 -4 3.8125 C-2.88625 2.73935547 -2.88625 2.73935547 -1.75 1.64453125 C-1.1725 1.10183594 -0.595 0.55914063 0 0 Z " fill="#3D3C3C" transform="translate(33,23)"/>
<path d="M0 0 C0.33 0 0.66 0 1 0 C1.25 2.75 1.25 2.75 1 6 C-1 8.375 -1 8.375 -3 10 C-3.23226952 6.59338044 -3.35720302 4.59016151 -1.5625 1.625 C-0.7890625 0.820625 -0.7890625 0.820625 0 0 Z " fill="#BBACAC" transform="translate(155,88)"/>
<path d="M0 0 C0 3.38878512 -0.64361198 4.39757217 -2.4375 7.1875 C-2.88996094 7.90292969 -3.34242187 8.61835937 -3.80859375 9.35546875 C-4.20175781 9.89816406 -4.59492188 10.44085938 -5 11 C-5.33 11 -5.66 11 -6 11 C-6.375 8.3125 -6.375 8.3125 -6 5 C-4.176017 2.93601924 -2.27236161 1.60958947 0 0 Z " fill="#E65D5D" transform="translate(27,44)"/>
<path d="M0 0 C0.33 0 0.66 0 1 0 C1.125 5.75 1.125 5.75 0 8 C-0.99 8 -1.98 8 -3 8 C-1.125 2.25 -1.125 2.25 0 0 Z " fill="#EA7777" transform="translate(20,49)"/>
<path d="M0 0 C0.66 0.33 1.32 0.66 2 1 C-0.475 4.465 -0.475 4.465 -3 8 C-3.33 7.01 -3.66 6.02 -4 5 C-2.0625 2.3125 -2.0625 2.3125 0 0 Z " fill="#B03F3F" transform="translate(140,120)"/>
</svg>
